<svg xmlns="http://www.w3.org/2000/svg" viewBox="0 0 893.5 133.1" width="1787" height="266">
  <rect width="100%" height="100%" fill="#1a1a2e"/>
  <line x1="0" y1="93.15" x2="893.5" y2="93.15" stroke="#ff6b6b" stroke-width="0.5" opacity="0.4"/>
  <line x1="0" y1="15.35" x2="893.5" y2="15.35" stroke="#4ecdc4" stroke-width="0.3" opacity="0.3"/>
  <line x1="0" y1="117.75" x2="893.5" y2="117.75" stroke="#4ecdc4" stroke-width="0.3" opacity="0.3"/>
  <rect x="15.35" y="15.35" width="32.55" height="102.40" fill="rgba(100,180,255,0.12)" stroke="rgba(100,180,255,0.35)" stroke-width="0.3"/>
  <rect x="47.90" y="15.35" width="31.20" height="102.40" fill="rgba(100,180,255,0.12)" stroke="rgba(100,180,255,0.35)" stroke-width="0.3"/>
  <path d="M193.0 371.0L193.0 1556.0L377.0 1556.0L377.0 383.0Q377.0 277.0 426.0 228.0Q470.0 184.0 569.0 184.0L644.0 184.0L644.0 0.0L514.0 0.0Q360.0 0.0 280.0 92.0Q193.0 193.0 193.0 371.0Z" transform="translate(47.90,93.15) scale(0.050000,-0.050000)" fill="white"/>
  <rect x="79.10" y="15.35" width="30.90" height="102.40" fill="rgba(100,180,255,0.12)" stroke="rgba(100,180,255,0.35)" stroke-width="0.3"/>
  <path d="M299.0 86.0Q222.0 0.0 70.0 0.0L-20.0 0.0L-20.0 184.0L15.0 184.0Q114.0 184.0 158.0 228.0Q207.0 277.0 207.0 383.0L207.0 600.0L391.0 600.0L391.0 383.0Q391.0 277.0 440.0 228.0Q484.0 184.0 583.0 184.0L638.0 184.0L638.0 0.0L528.0 0.0Q378.0 0.0 299.0 86.0ZM224.0 -150.0L374.0 -150.0L374.0 -300.0L224.0 -300.0L224.0 -150.0Z" transform="translate(79.10,93.15) scale(0.050000,-0.050000)" fill="white"/>
  <rect x="110.00" y="15.35" width="63.30" height="102.40" fill="rgba(100,180,255,0.12)" stroke="rgba(100,180,255,0.35)" stroke-width="0.3"/>
  <path d="M851.0 541.0Q768.0 564.0 665.0 587.0Q580.0 606.0 400.0 622.0Q318.0 629.0 157.0 623.0L157.0 807.0Q229.0 814.0 304.0 815.0Q466.0 815.0 638.0 780.0Q896.0 728.0 1116.0 630.0L1116.0 476.0Q1040.0 452.0 952.0 400.0Q786.0 302.0 712.0 236.0Q567.0 107.0 492.0 80.0Q271.0 0.0 108.0 0.0L-20.0 0.0L-20.0 184.0L80.0 184.0Q307.0 184.0 436.0 256.0Q540.0 314.0 656.0 420.0Q750.0 506.0 851.0 541.0Z" transform="translate(110.00,93.15) scale(0.050000,-0.050000)" fill="white"/>
  <rect x="173.30" y="15.35" width="56.50" height="102.40" fill="rgba(100,180,255,0.12)" stroke="rgba(100,180,255,0.35)" stroke-width="0.3"/>
  <path d="M632.0 550.0L816.0 550.0Q846.0 438.0 849.0 408.0Q859.0 305.0 932.0 228.0Q974.0 184.0 1075.0 184.0L1150.0 184.0L1150.0 0.0L1020.0 0.0Q890.0 0.0 840.0 62.0Q772.0 -216.0 521.0 -349.0Q237.0 -500.0 -85.0 -500.0L-85.0 -316.0Q219.0 -316.0 422.0 -188.0Q640.0 -50.0 675.0 158.0Q685.0 216.0 685.0 288.0Q685.0 414.0 632.0 550.0Z" transform="translate(173.30,93.15) scale(0.050000,-0.050000)" fill="white"/>
  <rect x="229.80" y="15.35" width="54.85" height="102.40" fill="rgba(100,180,255,0.12)" stroke="rgba(100,180,255,0.35)" stroke-width="0.3"/>
  <path d="M868.0 52.0Q771.0 -50.0 624.0 -50.0Q418.0 -50.0 308.0 48.0Q244.0 0.0 140.0 0.0L-20.0 0.0L-20.0 184.0L96.0 184.0Q148.0 184.0 191.5 219.5Q235.0 255.0 240.0 304.0Q260.0 485.0 395.0 565.0Q489.0 621.0 570.0 621.0Q746.0 621.0 837.0 537.0Q934.0 448.0 934.0 264.0Q934.0 121.0 868.0 52.0ZM406.0 199.0Q468.0 130.0 627.0 130.0Q674.0 130.0 693.0 148.0Q745.0 201.0 745.0 270.0Q745.0 345.0 705.0 383.0Q663.0 424.0 575.0 424.0Q529.0 424.0 483.5 394.0Q438.0 364.0 423.0 267.0Q416.0 230.0 406.0 199.0Z" transform="translate(229.80,93.15) scale(0.050000,-0.050000)" fill="white"/>
  <rect x="284.65" y="15.35" width="64.90" height="102.40" fill="rgba(100,180,255,0.12)" stroke="rgba(100,180,255,0.35)" stroke-width="0.3"/>
  <path d="M1124.0 676.0L1124.0 0.0L940.0 0.0L940.0 670.0Q940.0 829.0 878.0 908.0Q816.0 987.0 692.0 987.0Q543.0 987.0 457.0 892.0Q371.0 797.0 371.0 633.0L371.0 0.0L186.0 0.0L186.0 1556.0L371.0 1556.0L371.0 946.0Q437.0 1047.0 526.5 1097.0Q616.0 1147.0 733.0 1147.0Q926.0 1147.0 1025.0 1027.5Q1124.0 908.0 1124.0 676.0Z" transform="translate(284.65,93.15) scale(0.050000,-0.050000)" fill="white"/>
  <rect x="349.55" y="15.35" width="63.00" height="102.40" fill="rgba(100,180,255,0.12)" stroke="rgba(100,180,255,0.35)" stroke-width="0.3"/>
  <path d="M1151.0 606.0L1151.0 516.0L305.0 516.0Q317.0 326.0 419.5 226.5Q522.0 127.0 705.0 127.0Q811.0 127.0 910.5 153.0Q1010.0 179.0 1108.0 231.0L1108.0 57.0Q1009.0 15.0 905.0 -7.0Q801.0 -29.0 694.0 -29.0Q426.0 -29.0 269.5 127.0Q113.0 283.0 113.0 549.0Q113.0 824.0 261.5 985.5Q410.0 1147.0 662.0 1147.0Q888.0 1147.0 1019.5 1001.5Q1151.0 856.0 1151.0 606.0ZM967.0 660.0Q965.0 811.0 882.5 901.0Q800.0 991.0 664.0 991.0Q510.0 991.0 417.5 904.0Q325.0 817.0 311.0 659.0L967.0 660.0Z" transform="translate(349.55,93.15) scale(0.050000,-0.050000)" fill="white"/>
  <rect x="412.55" y="15.35" width="28.45" height="102.40" fill="rgba(100,180,255,0.12)" stroke="rgba(100,180,255,0.35)" stroke-width="0.3"/>
  <path d="M193.0 1556.0L377.0 1556.0L377.0 0.0L193.0 0.0L193.0 1556.0Z" transform="translate(412.55,93.15) scale(0.050000,-0.050000)" fill="white"/>
  <rect x="441.00" y="15.35" width="28.45" height="102.40" fill="rgba(100,180,255,0.12)" stroke="rgba(100,180,255,0.35)" stroke-width="0.3"/>
  <path d="M193.0 1556.0L377.0 1556.0L377.0 0.0L193.0 0.0L193.0 1556.0Z" transform="translate(441.00,93.15) scale(0.050000,-0.050000)" fill="white"/>
  <rect x="469.45" y="15.35" width="62.65" height="102.40" fill="rgba(100,180,255,0.12)" stroke="rgba(100,180,255,0.35)" stroke-width="0.3"/>
  <path d="M627.0 991.0Q479.0 991.0 393.0 875.5Q307.0 760.0 307.0 559.0Q307.0 358.0 392.5 242.5Q478.0 127.0 627.0 127.0Q774.0 127.0 860.0 243.0Q946.0 359.0 946.0 559.0Q946.0 758.0 860.0 874.5Q774.0 991.0 627.0 991.0ZM627.0 1147.0Q867.0 1147.0 1004.0 991.0Q1141.0 835.0 1141.0 559.0Q1141.0 284.0 1004.0 127.5Q867.0 -29.0 627.0 -29.0Q386.0 -29.0 249.5 127.5Q113.0 284.0 113.0 559.0Q113.0 835.0 249.5 991.0Q386.0 1147.0 627.0 1147.0Z" transform="translate(469.45,93.15) scale(0.050000,-0.050000)" fill="white"/>
  <rect x="532.10" y="15.35" width="32.55" height="102.40" fill="rgba(100,180,255,0.12)" stroke="rgba(100,180,255,0.35)" stroke-width="0.3"/>
  <path d="M240.0 254.0L451.0 254.0L451.0 82.0L287.0 -238.0L158.0 -238.0L240.0 82.0L240.0 254.0Z" transform="translate(532.10,93.15) scale(0.050000,-0.050000)" fill="white"/>
  <rect x="564.65" y="15.35" width="32.55" height="102.40" fill="rgba(100,180,255,0.12)" stroke="rgba(100,180,255,0.35)" stroke-width="0.3"/>
  <rect x="597.20" y="15.35" width="62.65" height="102.40" fill="rgba(100,180,255,0.12)" stroke="rgba(100,180,255,0.35)" stroke-width="0.3"/>
  <path d="M627.0 991.0Q479.0 991.0 393.0 875.5Q307.0 760.0 307.0 559.0Q307.0 358.0 392.5 242.5Q478.0 127.0 627.0 127.0Q774.0 127.0 860.0 243.0Q946.0 359.0 946.0 559.0Q946.0 758.0 860.0 874.5Q774.0 991.0 627.0 991.0ZM627.0 1147.0Q867.0 1147.0 1004.0 991.0Q1141.0 835.0 1141.0 559.0Q1141.0 284.0 1004.0 127.5Q867.0 -29.0 627.0 -29.0Q386.0 -29.0 249.5 127.5Q113.0 284.0 113.0 559.0Q113.0 835.0 249.5 991.0Q386.0 1147.0 627.0 1147.0Z" transform="translate(597.20,93.15) scale(0.050000,-0.050000)" fill="white"/>
  <rect x="659.85" y="15.35" width="99.00" height="102.40" fill="rgba(255,165,0,0.12)" stroke="rgba(255,165,0,0.35)" stroke-width="0.3"/>
  <path d="M760.0 1556.0L760.0 1403.0L584.0 1403.0Q485.0 1403.0 446.0 1363.0Q408.0 1323.0 408.0 1219.0L408.0 1120.0L913.0 1120.0L913.0 1198.0Q913.0 1385.0 1000.0 1470.0Q1028.0 1498.0 1067.0 1517.0Q1145.0 1556.0 1276.0 1556.0L1450.0 1556.0L1450.0 1403.0L1274.0 1403.0Q1175.0 1403.0 1136.5 1363.0Q1098.0 1323.0 1098.0 1219.0L1098.0 1120.0L1788.0 1120.0L1788.0 0.0L1603.0 0.0L1603.0 977.0L1098.0 977.0L1098.0 0.0L913.0 0.0L913.0 977.0L408.0 977.0L408.0 0.0L223.0 0.0L223.0 977.0L47.0 977.0L47.0 1120.0L223.0 1120.0L223.0 1198.0Q223.0 1385.0 310.0 1470.5Q397.0 1556.0 586.0 1556.0L760.0 1556.0ZM1603.0 1554.0L1788.0 1554.0L1788.0 1321.0L1603.0 1321.0L1603.0 1554.0Z" transform="translate(659.85,93.15) scale(0.050000,-0.050000)" fill="white"/>
  <rect x="758.85" y="15.35" width="56.30" height="102.40" fill="rgba(100,180,255,0.12)" stroke="rgba(100,180,255,0.35)" stroke-width="0.3"/>
  <path d="M999.0 1077.0L999.0 905.0Q921.0 948.0 842.5 969.5Q764.0 991.0 684.0 991.0Q505.0 991.0 406.0 877.5Q307.0 764.0 307.0 559.0Q307.0 354.0 406.0 240.5Q505.0 127.0 684.0 127.0Q764.0 127.0 842.5 148.5Q921.0 170.0 999.0 213.0L999.0 43.0Q922.0 7.0 839.5 -11.0Q757.0 -29.0 664.0 -29.0Q411.0 -29.0 262.0 130.0Q113.0 289.0 113.0 559.0Q113.0 833.0 263.5 990.0Q414.0 1147.0 676.0 1147.0Q761.0 1147.0 842.0 1129.5Q923.0 1112.0 999.0 1077.0Z" transform="translate(758.85,93.15) scale(0.050000,-0.050000)" fill="white"/>
  <rect x="815.15" y="15.35" width="63.00" height="102.40" fill="rgba(100,180,255,0.12)" stroke="rgba(100,180,255,0.35)" stroke-width="0.3"/>
  <path d="M1151.0 606.0L1151.0 516.0L305.0 516.0Q317.0 326.0 419.5 226.5Q522.0 127.0 705.0 127.0Q811.0 127.0 910.5 153.0Q1010.0 179.0 1108.0 231.0L1108.0 57.0Q1009.0 15.0 905.0 -7.0Q801.0 -29.0 694.0 -29.0Q426.0 -29.0 269.5 127.0Q113.0 283.0 113.0 549.0Q113.0 824.0 261.5 985.5Q410.0 1147.0 662.0 1147.0Q888.0 1147.0 1019.5 1001.5Q1151.0 856.0 1151.0 606.0ZM967.0 660.0Q965.0 811.0 882.5 901.0Q800.0 991.0 664.0 991.0Q510.0 991.0 417.5 904.0Q325.0 817.0 311.0 659.0L967.0 660.0Z" transform="translate(815.15,93.15) scale(0.050000,-0.050000)" fill="white"/>
</svg>
